Coordinates
version=1
nRows=16
nColumns=36
inDegrees=yes

Units are S.I. units (second, meters, Newtons, ...)
If the header above contains a line with 'inDegrees', this indicates whether rotational values are in degrees (yes) or radians (no).

endheader
time	pelvis_tilt	pelvis_list	pelvis_rotation	pelvis_tx	pelvis_ty	pelvis_tz	hip_flexion_r	hip_adduction_r	hip_rotation_r	knee_angle_r	knee_angle_r_beta	ankle_angle_r	subtalar_angle_r	mtp_angle_r	hip_flexion_l	hip_adduction_l	hip_rotation_l	knee_angle_l	knee_angle_l_beta	ankle_angle_l	subtalar_angle_l	mtp_angle_l	lumbar_extension	lumbar_bending	lumbar_rotation	arm_flex_r	arm_add_r	arm_rot_r	elbow_flex_r	pro_sup_r	arm_flex_l	arm_add_l	arm_rot_l	elbow_flex_l	pro_sup_l
      3.07083330	      2.57375905	     -2.07177020	      4.95727430	      0.30633610	      0.80056768	      0.04348665	     28.95987102	     -0.42999735	      1.78296275	     68.55968183	      1.19659218	     33.53789611	    -25.61932177	     -7.49999987	     34.69067027	     -8.53372589	      6.68340266	     70.44438605	      1.22948648	     31.57059360	     -9.87761761	     -7.49999987	    -21.56681349	     -2.15146466	      0.82934798	     26.45208621	     -5.65524525	     19.85013621	    104.37218552	     97.99726984	     40.63780712	    -17.02250034	     23.47287099	    130.75239964	     92.92702806
      3.07500000	      2.71427678	     -1.91040496	      5.02539846	      0.30644982	      0.79997773	      0.04309303	     29.05509781	     -0.58093264	      1.66727160	     69.14946059	      1.20688576	     34.41432859	    -25.23978756	     -7.49999987	     34.93912126	     -8.71890379	      6.52240187	     71.13486488	      1.24153761	     31.77751012	     -9.32276708	     -7.49999987	    -22.04894586	     -2.41390059	      0.81238294	     26.31704587	     -5.36678324	     19.67383601	    103.51473109	     98.76387602	     40.10194355	    -16.91011545	     24.07173261	    129.62285875	     93.29471560
      3.07916670	      2.57530602	     -1.83182072	      5.06041434	      0.30654917	      0.79990205	      0.04314750	     29.39414842	     -0.70833282	      1.54692515	     69.50014415	      1.21300635	     34.80347969	    -25.03708208	     -7.49999987	     35.18260976	     -8.84944747	      6.29768269	     71.42511166	      1.24660337	     31.85133775	     -9.48532474	     -7.49999987	    -22.34907364	     -2.59092152	      0.70055513	     25.75977954	     -5.41635378	     19.64412232	    102.64355933	     97.88317372	     39.08978546	    -16.45186398	     24.23382327	    128.49669418	     92.51076252
      3.08333330	      3.22885133	     -1.71517698	      5.33230420	      0.31363419	      0.79457044	      0.04276613	     28.29739861	     -0.78107683	      1.51505587	     69.74808463	      1.21733372	     35.35515219	    -24.97377666	     -7.49999987	     34.45233453	     -9.03922492	      6.12269419	     72.08559640	      1.25813100	     32.52847861	     -8.75667861	     -7.49999987	    -22.95142690	     -2.46260430	      0.67264964	     25.04226529	     -5.56793302	     19.43024840	    101.79189743	     97.68451948	     37.76730106	    -15.78349868	     23.81966300	    126.95586219	     92.13125136
      3.08750000	      3.45765470	     -1.66047411	      5.21014151	      0.31195356	      0.79557769	      0.03465044	     28.05946600	     -1.18797624	      1.57840003	     70.12930150	      1.22398721	     35.10774163	    -24.95164457	     -7.49999987	     34.13059781	     -8.73236476	      5.93093915	     72.45638027	      1.26460240	     32.76563575	     -8.87370914	     -7.49999987	    -23.21182389	     -2.20844764	      0.54023990	     24.39068806	     -6.02635145	     19.41606693	    101.66991199	     97.78374744	     36.49657959	    -15.38286974	     23.97763251	    126.72095376	     92.19713196
      3.09166670	      3.67847473	     -1.60496497	      4.78525616	      0.31861273	      0.79094338	      0.02551006	     27.57458132	     -1.89375120	      1.97838524	     70.48713960	      1.23023267	     35.10790130	    -24.41590791	     -7.49999987	     33.65911800	     -8.37169732	      5.36579012	     73.16448014	      1.27696107	     33.92334312	     -8.52828527	     -7.49999987	    -22.76372945	     -1.57823709	      0.67770137	     23.48469969	     -6.79551587	     19.33638016	    101.74795097	     98.08721593	     34.18013212	    -14.07174121	     22.58131011	    125.82272922	     92.27004277
      3.09583330	      3.86652752	     -1.56014938	      4.64969388	      0.32526751	      0.78980816	      0.02566905	     26.85981157	     -2.31448177	      2.16752729	     70.44941547	      1.22957426	     35.39395807	    -24.09219355	     -7.49999987	     33.01369363	     -8.10146359	      4.97406319	     73.59443875	      1.28446527	     34.75280622	     -8.40666446	     -7.49999987	    -22.16086401	     -1.06222942	      0.51062699	     22.19952757	     -7.20372435	     19.29950574	    101.86909098	     98.27016374	     32.19577628	    -13.61697748	     22.25603310	    125.58533704	     92.32591469
      3.10000000	      3.69368986	     -1.76868736	      4.30601151	      0.31624695	      0.78855804	      0.02556795	     27.62241287	     -2.54763403	      2.01443179	     71.17306459	      1.24220432	     36.03072489	    -23.11340254	     -7.49999987	     33.34967020	     -7.93022554	      5.01158042	     74.02418296	      1.29196572	     35.40070739	     -8.56780124	     -7.49999987	    -21.84249941	     -0.27497496	      0.32533548	     21.68969058	     -7.54592551	     19.03076073	    102.49741769	     99.06234096	     30.70888650	    -12.74694621	     20.23534100	    125.64050678	     92.48599241
      3.10416670	      3.74532482	     -1.79824327	      4.13721641	      0.31528418	      0.79296905	      0.02655117	     27.52234915	     -2.56194995	      2.05961549	     70.81307554	      1.23592132	     36.10757627	    -22.64799976	     -7.49999987	     33.19077525	     -7.78287852	      5.15599508	     73.69195099	      1.28616718	     34.98642094	     -9.02883516	     -7.49999987	    -21.78274593	      0.06320457	      0.07311023	     21.65657189	     -7.60852992	     19.13356657	    102.50651039	    101.36754836	     29.95475462	    -12.37780547	     19.41682137	    125.48154037	     92.81535681
      3.10833330	      3.49062080	     -1.96994550	      4.05543064	      0.31942621	      0.78339272	      0.03032753	     28.23281800	     -2.40716423	      1.84184908	     71.50392413	      1.24797890	     36.82402116	    -22.69754844	     -7.49999987	     33.88632846	     -8.18476022	      5.39558957	     74.38760586	      1.29830864	     35.46324690	     -8.86178344	     -7.49999987	    -21.24341082	      0.21122889	     -0.06068750	     20.67536083	     -7.29390062	     18.74709593	    103.28344944	     98.88671530	     29.28606024	    -12.13698516	     19.54718215	    125.78060705	     90.57905041
      3.11250000	      3.38982625	     -2.04813045	      4.14084868	      0.32236734	      0.78156270	      0.02556754	     28.46147943	     -2.57473972	      1.63272592	     72.05757323	      1.25764190	     37.27177643	    -22.37876254	     -7.49999987	     34.26421099	     -8.08328842	      5.72132155	     75.09184925	      1.31060001	     35.95058841	     -8.94486596	     -7.49999987	    -20.57815000	      0.34298029	     -0.50076684	     19.84592189	     -7.23040007	     18.36563612	    103.68258509	     99.28252515	     28.46575529	    -11.76152294	     19.18857794	    125.22685523	     90.66170542
      3.11666670	      3.09545346	     -2.09011889	      4.36761801	      0.32171566	      0.78142940	      0.02474409	     28.85681910	     -2.66505874	      1.41177313	     72.51210170	      1.26557492	     37.89330052	    -21.69124048	     -7.49999987	     34.79573610	     -7.93129088	      5.92645632	     75.49186129	      1.31758154	     36.64304493	     -8.72234959	     -7.49999987	    -19.97335631	      0.46048674	     -0.95710388	     19.19445510	     -7.25550027	     18.03560103	    104.01779292	    101.33768208	     27.60819011	    -11.57964062	     19.15264679	    124.82202025	     90.82881134
      3.12083330	      3.22056683	     -2.23370734	      4.20170877	      0.31607308	      0.78282647	      0.02230606	     29.04395613	     -2.71592191	      1.28190295	     72.77052928	      1.27008533	     37.65015554	    -21.42992652	     -7.49999987	     34.85608957	     -7.93823343	      5.96488964	     75.68035696	      1.32087141	     36.66140613	     -8.85223427	     -7.49999987	    -20.25709625	      0.63470904	     -1.20358568	     18.99797465	     -7.35817755	     17.99957066	    104.01383579	    101.33625872	     27.28120477	    -11.51863488	     19.24780212	    124.58820944	     90.81970021
      3.12500000	      2.86918886	     -2.58385524	      4.11471947	      0.31622170	      0.78222082	      0.02119467	     29.61609915	     -2.72492833	      0.97094864	     72.80181978	      1.27063146	     37.57225021	    -20.49504056	     -7.49999987	     35.48383581	     -7.93468313	      6.30183084	     75.94652672	      1.32551695	     36.36881678	     -9.69227334	     -7.49999987	    -19.61317874	      1.18337336	     -1.32482668	     18.91374794	     -7.55117901	     17.96212384	    103.73492440	     99.91130217	     26.63481827	    -11.14567601	     19.25472454	    123.40530277	     89.68293801
      3.12916670	      2.51816729	     -2.78207658	      3.99278460	      0.31624320	      0.77933156	      0.02153216	     30.22084831	     -2.86853153	      0.62533220	     73.09207973	      1.27569745	     37.94077803	    -19.68442088	     -7.49999987	     36.23170322	     -8.21793803	      6.25270193	     76.41525851	      1.33369786	     36.04060714	     -9.77105093	     -7.49999987	    -19.14957014	      1.38448082	     -1.40459122	     18.48993888	     -7.86088976	     18.18209313	    103.95701564	     95.77218247	     26.10501262	    -10.83509775	     19.48911407	    122.90059364	     86.27303892
      3.13333330	      2.34142112	     -2.55981042	      3.83749670	      0.31621437	      0.78531144	      0.02097018	     30.27772914	     -3.14496465	      0.78829444	     72.62458953	      1.26753821	     37.50863248	    -19.58053627	     -7.49999987	     36.07084998	     -8.08441932	      5.83664696	     75.80421885	      1.32303321	     35.77938492	     -9.80159711	     -7.49999987	    -18.98350088	      1.18088383	     -1.50938046	     18.11595836	     -7.83418354	     18.26175142	    103.78105449	     96.23729958	     25.41951209	    -10.57846919	     19.00307194	    122.07225164	     86.32756551
